<?xml version="1.0" encoding="utf-8"?>
<!-- Generator: Adobe Illustrator 15.0.0, SVG Export Plug-In . SVG Version: 6.00 Build 0)  -->
<!DOCTYPE svg PUBLIC "-//W3C//DTD SVG 1.1//EN" "http://www.w3.org/Graphics/SVG/1.1/DTD/svg11.dtd">
<svg version="1.1" id="Layer_1" xmlns="http://www.w3.org/2000/svg" xmlns:xlink="http://www.w3.org/1999/xlink" x="0px" y="0px"
	 width="242px" height="260px" viewBox="-98.644 -145.508 242 260" enable-background="new -98.644 -145.508 242 260"
	 xml:space="preserve">
<path d="M94.8-24.568v-82.287l-21.118-6.673v-8.059l-50.78-16.922l-42.238,11.982v7.285l-20.276,5.493v76.771L-85-30.783V95.242
	l63.846,7.742l0.137-0.199l11.288-1.364V65.749l17.84-1.047V99.26l12.141-1.526V63.89l15.975-0.929v32.804l7.771-0.825
	l-0.089-62.283H74.19v56.591l11.112-1.356v-28.86l12.239-0.686v28.057l8.413-1.033V57.793l11.171-0.627v26.847l7.107-0.87V-20.74
	L94.8-24.568z M-71.039,54.474l-9.279-0.391v-8.272l9.279,0.229V54.474z M-71.039,39.883l-9.279-0.11v-8.28l9.279-0.044V39.883z
	 M-70.965,25.594l-9.279,0.147v-8.28l9.279-0.295V25.594z M-70.965,11.481l-9.279,0.406v-8.28l9.279-0.553V11.481z M-70.965-3.347
	l-9.279,0.678v-8.28l9.279-0.826V-3.347z M-56.263,54.836l-9.817-0.397v-8.517l9.817,0.236V54.836z M-56.263,39.832l-9.817-0.118
	v-8.509l9.817-0.045V39.832z M-56.181,25.121l-9.822,0.163v-8.517l9.822-0.317V25.121z M-56.181,10.596l-9.822,0.442V2.53
	l9.822-0.597V10.596z M-56.181-4.652l-9.822,0.723v-8.516l9.822-0.877V-4.652z M-41.327,55.529l-10.382-0.42v-8.752l10.382,0.25
	V55.529z M-41.327,40.097l-10.382-0.133v-8.745l10.382-0.044V40.097z M-41.239,24.967l-10.382,0.154v-8.737l10.382-0.347V24.967z
	 M-41.239,10.028l-10.382,0.458V1.74l10.382-0.626V10.028z M-41.239-5.67l-10.382,0.767v-8.752l10.382-0.929V-5.67z
	 M-31.333-102.976l11.856-2.927v18.175l-11.856,2.544V-102.976z M-31.34-74.441l11.853-2.323v18.175l-11.853,1.932V-74.441z
	 M-25.224,56.23l-11.002-0.45v-9.003l11.002,0.266V56.23z M-25.224,40.34l-11.002-0.14v-9.003l11.002-0.051V40.34z M-25.117,24.746
	l-11.009,0.177V15.92l11.009-0.361V24.746z M-25.117,9.365l-11.009,0.479v-9.01l11.009-0.664V9.365z M-25.117-6.798l-11.009,0.796
	v-8.996l11.009-0.988V-6.798z M-19.396-38.791l-2.816-0.361l-9.036,1.128v-7.307l11.853-1.688V-38.791z M15.753,10.913V1.829
	l9.707,0.59v8.921L15.753,10.913z M25.283,16.767v8.914l-9.714-0.146V16.45L25.283,16.767z M25.379-12.151v8.914l-9.718-0.7v-9.077
	L25.379-12.151z M17.788-34.087L4.328-35.79v-14.393l13.46-1.91V-34.087z M4.236-111.566l13.456-3.318v19.377L4.236-92.624V-111.566
	z M4.229-81.188l13.457-2.617v19.377L4.229-62.245V-81.188z M-13.566-107.326l12.648-3.126v18.78l-12.648,2.721V-107.326z
	 M-13.566-77.869l12.648-2.47v18.78l-12.648,2.05V-77.869z M-15.499-15.941l10.895,0.973v9.438l-10.895-0.789V-15.941z
	 M-15.204,0.015l10.88,0.656v9.43l-10.88-0.479V0.015z M-4.225,15.359v9.431l-10.883-0.169v-9.616L-4.225,15.359z M-15.107,31.094
	l10.883,0.053v9.43l-10.883,0.147V31.094z M-4,56.023l-10.872,0.449v-9.621L-4,46.6V56.023z M-0.837-36.439l-12.646-1.6v-9.77
	l12.646-1.799V-36.439z M1.051-14.341l10.26,0.914v9.158L1.051-5.006V-14.341z M1.143,0.922l10.261,0.627v9.158l-10.261-0.45V0.922z
	 M11.491,16.001v9.157L1.239,24.996v-9.327L11.491,16.001z M1.239,31.286l10.252,0.044v9.158l-10.252,0.14V31.286z M11.613,55.33
	L1.368,55.765V46.43l10.245-0.243V55.33z M15.562,31.662l9.722,0.037v8.922l-9.722,0.133V31.662z M25.52,54.873l-9.7,0.398v-9.076
	l9.7-0.229V54.873z M29.103-114.773l13.051,3.797v18.315L29.103-96.06V-114.773z M29.545-82.935l13.021,2.979v18.293l-13.021-2.573
	V-82.935z M39.189-2.329l-9.202-0.664v-8.833l9.202,0.811V-2.329z M39.271,3.178v8.664l-9.188-0.398V2.618L39.271,3.178z
	 M39.116,17.136v8.671l-9.202-0.147v-8.834L39.116,17.136z M39.116,31.662v8.671l-9.202,0.126v-8.834L39.116,31.662z M39.293,54.497
	l-9.194,0.384v-8.826l9.194-0.229V54.497z M42.67-31.108l-13.021-1.777v-18.691l13.021,2.16V-31.108z M112.503-4.814l6.467,0.583
	v7.277l-6.467-0.472V-4.814z M119.014,7.669v7.285l-6.452-0.288V7.278L119.014,7.669z M112.437,19.178l6.467,0.214v7.285
	l-6.467-0.104V19.178z M102.505-5.64l6.761,0.604v7.447l-6.761-0.479V-5.64z M109.325,7.145v7.447l-6.769-0.295V6.732L109.325,7.145
	z M102.438,18.921l6.769,0.222v7.446l-6.769-0.103V18.921z M64.583-104.524l11.312,3.296v17.069l-11.312-2.957V-104.524z
	 M76.233-72.324v17.054l-11.281-2.241v-17.401L76.233-72.324z M60.248-46.429v17.645l-12.107-1.652v-18.021L60.248-46.429z
	 M60.159-58.241l-12.114-2.389v-18.028l12.114,2.772V-58.241z M47.64-109.332l12.121,3.525v17.659L47.64-91.304V-109.332z
	 M74.493,26.213l-30.489-0.266V17.38l30.489,0.767V26.213z M74.773,13.523L43.923,11.99V3.422l30.851,2.042V13.523z M74.921,0.03
	L43.931-1.99v-8.56l30.99,2.507V0.03z M76.329-26.816l-11.281-1.549v-17.386l11.281,1.88V-26.816z M80.819-99.739l10.544,3.075
	v16.494l-10.544-2.75V-99.739z M91.688-68.734v16.479l-10.528-2.086v-16.804L91.688-68.734z M81.077-7.69l7.44,0.671v7.815
	l-7.44-0.545V-7.69z M81.276,5.464l7.433,0.457v7.801l-7.433-0.325V5.464z M88.783,18.088v7.801l-7.433-0.133v-7.934L88.783,18.088z
	 M81.336,31.116l7.432,0.052v7.793l-7.432,0.104V31.116z M88.931,51.754l-7.433,0.295v-7.934l7.433-0.17V51.754z M91.776-24.752
	l-10.529-1.445v-16.789l10.529,1.748V-24.752z M92.403-6.562l7.086,0.634v7.624l-7.086-0.523V-6.562z M92.47,6.091l7.078,0.435
	v7.617l-7.078-0.31V6.091z M99.614,18.552v7.631l-7.086-0.133v-7.734L99.614,18.552z M92.543,31.278l7.079,0.037v7.616l-7.079,0.089
	V31.278z M99.695,51.29l-7.078,0.28v-7.734l7.078-0.17V51.29z M102.431,31.588l6.776,0.029v7.455l-6.776,0.088V31.588z
	 M109.369,50.995l-6.769,0.265v-7.564l6.769-0.154V50.995z M112.437,31.558l6.459,0.029v7.285l-6.459,0.081V31.558z M119.028,50.759
	l-6.452,0.266v-7.396l6.452-0.147V50.759z"/>
</svg>
